<svg xmlns="http://www.w3.org/2000/svg" width="192" height="14" viewBox="0 0 192 14" fill="none"><path d="M5.88 6.88C5.82667 6.77333 5.77333 6.69333 5.72 6.64C5.48 6.32 5.37333 5.97333 5.4 5.6V4.32C5.4 4.13333 5.4 3.86667 5.4 3.52C5.4 3.14667 5.38667 2.88 5.36 2.72C5.30667 2.24 5.14667 1.88 4.88 1.64C4.56 1.32 4.13333 1.12 3.6 1.04C3.09333 0.959999 2.61333 0.973332 2.16 1.08C1.73333 1.16 1.33333 1.33333 0.96 1.6C0.613333 1.84 0.373333 2.24 0.24 2.8C0.186667 2.98667 0.266667 3.10667 0.48 3.16L0.84 3.2C1.13333 3.22667 1.36 3.25333 1.52 3.28C1.6 3.28 1.66667 3.25333 1.72 3.2C1.77333 3.14667 1.8 3.09333 1.8 3.04C1.85333 2.82667 1.96 2.65333 2.12 2.52C2.36 2.33333 2.64 2.26667 2.96 2.32C3.14667 2.34667 3.29333 2.42667 3.4 2.56C3.53333 2.66667 3.61333 2.81333 3.64 3V3.68L2.2 3.88C1.77333 3.93333 1.37333 4.06667 1 4.28C0.573333 4.54667 0.28 4.92 0.12 5.4L0 5.88V6.4L0.04 6.48C0.04 6.61333 0.0933333 6.81333 0.2 7.08C0.36 7.48 0.64 7.76 1.04 7.92C1.36 8.02667 1.68 8.06667 2 8.04C2.58667 8.04 3.09333 7.86667 3.52 7.52C3.68 7.36 3.81333 7.24 3.92 7.16C3.92 7.18667 3.93333 7.21333 3.96 7.24C4.14667 7.50667 4.34667 7.73333 4.56 7.92C4.69333 8.02667 4.81333 8.02667 4.92 7.92L5.84 7.16C5.92 7.08 5.93333 6.98667 5.88 6.88ZM3.64 5.08C3.64 5.48 3.61333 5.76 3.56 5.92C3.42667 6.34667 3.2 6.62667 2.88 6.76C2.66667 6.84 2.45333 6.84 2.24 6.76C2.05333 6.68 1.93333 6.52 1.88 6.28C1.77333 5.98667 1.8 5.66667 1.96 5.32C2.09333 5.10667 2.26667 4.94667 2.48 4.84C2.77333 4.73333 3.09333 4.68 3.44 4.68H3.56C3.61333 4.65333 3.64 4.68 3.64 4.76V5.08ZM7.08 7.96C7.48 7.96 7.88 7.96 8.28 7.96C8.33333 7.96 8.38667 7.94667 8.44 7.92C8.49333 7.89333 8.52 7.81333 8.52 7.68V4.08C8.52 3.92 8.54667 3.68 8.6 3.36C8.65333 2.93333 8.86667 2.69333 9.24 2.64C9.64 2.58667 9.89333 2.70667 10 3C10.08 3.16 10.12 3.33333 10.12 3.52C10.1467 3.68 10.16 3.93333 10.16 4.28V7.68C10.16 7.78667 10.1733 7.86667 10.2 7.92C10.2533 7.94667 10.3333 7.96 10.44 7.96H11.56C11.7467 7.96 11.84 7.86667 11.84 7.68V4.08L11.88 3.44C11.9333 3.12 12.08 2.89333 12.32 2.76C12.4533 2.65333 12.6133 2.61333 12.8 2.64C12.9867 2.64 13.1333 2.70667 13.24 2.84C13.3733 2.94667 13.44 3.12 13.44 3.36V7.68C13.44 7.86667 13.5333 7.96 13.72 7.96H14.88C15.0667 7.96 15.16 7.86667 15.16 7.68V3.16C15.16 3 15.1333 2.76 15.08 2.44V2.36C15 1.88 14.7333 1.53333 14.28 1.32C13.8533 1.08 13.44 0.999998 13.04 1.08C12.56 1.16 12.2 1.38667 11.96 1.76C11.88 1.84 11.7867 1.98667 11.68 2.2C11.3867 1.42667 10.8533 1.05333 10.08 1.08C9.30667 1.08 8.77333 1.45333 8.48 2.2H8.44V1.44C8.44 1.28 8.34667 1.2 8.16 1.2H7.08C6.92 1.2 6.84 1.29333 6.84 1.48V7.72C6.84 7.88 6.92 7.96 7.08 7.96ZM17.28 7.92C17.4933 8 17.8 8.04 18.2 8.04C18.7867 8.04 19.2933 7.86667 19.72 7.52C19.8267 7.44 19.96 7.32 20.12 7.16C20.1467 7.18667 20.16 7.21333 20.16 7.24C20.3467 7.50667 20.5467 7.73333 20.76 7.92C20.8933 8.05333 21.0267 8.05333 21.16 7.92L22.08 7.16C22.16 7.08 22.1733 7.01333 22.12 6.96C22.0933 6.88 22.0533 6.8 22 6.72L21.96 6.64C21.72 6.32 21.6 5.97333 21.6 5.6V3.24C21.6 3.08 21.5733 2.81333 21.52 2.44C21.44 1.98667 21.2133 1.65333 20.84 1.44C20.4933 1.2 20.1333 1.06667 19.76 1.04C19.12 0.933333 18.48 0.986666 17.84 1.2C17.44 1.38667 17.12 1.61333 16.88 1.88C16.6667 2.12 16.52 2.42667 16.44 2.8C16.3867 3.01333 16.48 3.13333 16.72 3.16C16.96 3.16 17.2933 3.18667 17.72 3.24C17.88 3.26667 17.9867 3.18667 18.04 3C18.0933 2.78667 18.1867 2.62667 18.32 2.52C18.6133 2.30667 18.9067 2.24 19.2 2.32C19.4933 2.37333 19.6933 2.52 19.8 2.76C19.8533 2.92 19.88 3.14667 19.88 3.44V3.64L19.84 3.68C19.68 3.68 19.4667 3.70667 19.2 3.76L18.16 3.88C17.7867 3.96 17.44 4.12 17.12 4.36C16.6667 4.68 16.3867 5.12 16.28 5.68C16.2 6.21333 16.2533 6.68 16.44 7.08C16.6267 7.48 16.9067 7.76 17.28 7.92ZM18.16 5.36C18.2667 5.14667 18.44 4.98667 18.68 4.88C18.9467 4.74667 19.2667 4.68 19.64 4.68H19.68C19.7867 4.68 19.84 4.69333 19.84 4.72C19.8667 4.72 19.88 4.77333 19.88 4.88V5.08C19.88 5.45333 19.8533 5.74667 19.8 5.96C19.64 6.36 19.4267 6.62667 19.16 6.76C18.8933 6.86667 18.64 6.86667 18.4 6.76C18.1867 6.62667 18.0667 6.4 18.04 6.08C18.04 5.76 18.08 5.52 18.16 5.36ZM40 3.64C40 3.10667 39.9733 2.70667 39.92 2.44C39.84 1.98667 39.64 1.64 39.32 1.4C38.9467 1.10667 38.52 0.999998 38.04 1.08C37.88 1.08 37.6933 1.12 37.48 1.2C37.2133 1.28 36.96 1.53333 36.72 1.96C36.6667 2.04 36.6133 2.16 36.56 2.32H36.52V1.44C36.52 1.28 36.44 1.2 36.28 1.2H35.16C35 1.2 34.92 1.28 34.92 1.44V7.68C34.92 7.86667 35.0133 7.96 35.2 7.96H36.32C36.5067 7.96 36.6 7.86667 36.6 7.68V4.36L36.64 3.72C36.6933 3.4 36.7867 3.13333 36.92 2.92C37.1333 2.6 37.4267 2.50667 37.8 2.64C37.9867 2.72 38.12 2.86667 38.2 3.08C38.2267 3.18667 38.2533 3.34667 38.28 3.56L38.32 3.8V7.68C38.32 7.78667 38.3333 7.86667 38.36 7.92C38.4133 7.94667 38.4933 7.96 38.6 7.96H39.72C39.9067 7.96 40 7.85333 40 7.64V3.64ZM33.44 2.36C33.2533 2.04 32.9867 1.74667 32.64 1.48C32.16 1.13333 31.6 0.986665 30.96 1.04C30.5867 1.09333 30.2533 1.18667 29.96 1.32C29.4267 1.58667 29.0133 2.05333 28.72 2.72C28.5333 3.17333 28.4133 3.76 28.36 4.48C28.36 5.09333 28.44 5.65333 28.6 6.16C28.7867 6.66667 29.04 7.08 29.36 7.4C29.84 7.85333 30.4667 8.08 31.24 8.08C31.56 8.10667 31.9467 8.01333 32.4 7.8C32.7467 7.64 33.0667 7.33333 33.36 6.88C33.68 6.4 33.88 5.88 33.96 5.32C33.9867 4.97333 33.9867 4.6 33.96 4.2C33.9067 3.50667 33.7333 2.89333 33.44 2.36ZM32.16 5.12C32.16 5.49333 32.1067 5.81333 32 6.08C31.92 6.34667 31.7733 6.54667 31.56 6.68C31.4 6.78667 31.2267 6.82667 31.04 6.8C30.8533 6.74667 30.7067 6.64 30.6 6.48C30.44 6.29333 30.3333 6.02667 30.28 5.68C30.2533 5.57333 30.2267 5.44 30.2 5.28C30.2 5.09333 30.2 4.81333 30.2 4.44H30.16L30.28 3.36C30.3067 3.14667 30.3867 2.93333 30.52 2.72C30.7067 2.37333 31.0133 2.25333 31.44 2.36C31.7333 2.46667 31.92 2.68 32 3C32.0533 3.24 32.1067 3.54667 32.16 3.92V5.12ZM24.92 10C24.7867 9.92 24.68 9.89333 24.6 9.92C24.3867 9.97333 24.2133 10.0267 24.08 10.08L23.6 10.28C23.3867 10.3333 23.2133 10.3867 23.08 10.44L22.68 10.56C22.6533 10.5867 22.5867 10.6133 22.48 10.64C22.4 10.6667 22.3333 10.6933 22.28 10.72L21.76 10.84L21.36 10.96L20.96 11.04C20.7467 11.0933 20.6 11.12 20.52 11.12C20.3333 11.1733 20.0533 11.2267 19.68 11.28L19.64 11.32C19.56 11.3467 19.5067 11.36 19.48 11.36C19.2933 11.36 19.1467 11.3733 19.04 11.4C18.7733 11.4 18.3733 11.4267 17.84 11.48C17.68 11.5067 17.4133 11.52 17.04 11.52C16.1333 11.5733 15.3067 11.56 14.56 11.48L13.56 11.36C13.32 11.3333 12.96 11.2667 12.48 11.16L12.04 11.12L11.68 11L11.2 10.92L10.96 10.8L10.08 10.6L9.76 10.48L9.6 10.4L8.88 10.16L8.44 9.96C8.36 9.96 8.30667 9.94667 8.28 9.92L7.96 9.8L7.8 9.72C7.72 9.69333 7.6 9.62667 7.44 9.52L6.72 9.2L6.2 8.88C6.14667 8.85333 6.08 8.81333 6 8.76L5.92 8.72C5.76 8.66667 5.68 8.72 5.68 8.88C5.68 8.93333 5.69333 8.97333 5.72 9C5.8 9.05333 5.90667 9.14667 6.04 9.28L7.04 10.04C7.12 10.0933 7.21333 10.16 7.32 10.24C7.42667 10.32 7.58667 10.44 7.8 10.6L8 10.72C8.21333 10.8267 8.36 10.9067 8.44 10.96C8.52 11.0133 8.61333 11.08 8.72 11.16C8.85333 11.2133 8.94667 11.2533 9 11.28C9.10667 11.36 9.29333 11.4533 9.56 11.56L9.8 11.64C9.88 11.6933 10.0133 11.7467 10.2 11.8L10.36 11.88C10.4667 11.9333 10.6267 11.9867 10.84 12.04L10.92 12.12C11 12.1467 11.0533 12.16 11.08 12.16L11.56 12.32C11.72 12.3467 11.8267 12.3867 11.88 12.44L12.2 12.48L12.48 12.56C12.5067 12.5867 12.5467 12.6 12.6 12.6C12.68 12.6 12.7733 12.6267 12.88 12.68C13.0133 12.68 13.16 12.7067 13.32 12.76L13.76 12.8C14.08 12.88 14.4 12.92 14.72 12.92C15.1467 12.9733 15.4667 13 15.68 13H16.64L17.32 12.96C17.3733 12.9333 17.4267 12.92 17.48 12.92C17.56 12.92 17.6133 12.92 17.64 12.92C17.8 12.92 18.0133 12.8933 18.28 12.84L18.76 12.8L19.2 12.72L19.24 12.68C19.2667 12.6533 19.2933 12.6533 19.32 12.68L19.6 12.64L20.28 12.48L20.6 12.36C20.8667 12.3067 21.0533 12.2533 21.16 12.2C21.32 12.1467 21.56 12.0667 21.88 11.96L22.4 11.76L23.12 11.4C23.2 11.3733 23.2533 11.3467 23.28 11.32L24.16 10.84C24.2667 10.7867 24.4267 10.68 24.64 10.52L24.88 10.32C24.9067 10.2933 24.92 10.24 24.92 10.16C24.9467 10.08 24.9467 10.0267 24.92 10ZM27.56 6.24C27.0533 5.97333 26.48 5.81333 25.84 5.76H25.28V5.72L25.32 5.64L27.48 2.56C27.6133 2.37333 27.68 2.17333 27.68 1.96C27.6533 1.88 27.6533 1.77333 27.68 1.64V1.44C27.68 1.25333 27.5733 1.16 27.36 1.16H23.4C23.2133 1.16 23.12 1.25333 23.12 1.44V2.24C23.12 2.42667 23.2133 2.52 23.4 2.52H25.48L25.44 2.6L24.52 3.92C23.9333 4.77333 23.48 5.41333 23.16 5.84C22.9733 6.08 22.88 6.32 22.88 6.56C22.9067 6.69333 22.9067 6.88 22.88 7.12V7.6C22.9067 7.68 22.9467 7.73333 23 7.76C23.08 7.78667 23.16 7.78667 23.24 7.76C23.56 7.6 23.88 7.48 24.2 7.4C24.6267 7.29333 25.0533 7.25333 25.48 7.28C25.8 7.28 26.12 7.32 26.44 7.4C26.7867 7.48 27.12 7.6 27.44 7.76C27.52 7.81333 27.5867 7.82667 27.64 7.8C27.72 7.74667 27.76 7.66667 27.76 7.56C27.8133 7.24 27.8133 6.92 27.76 6.6C27.76 6.41333 27.6933 6.29333 27.56 6.24ZM26.68 8.52C26.5733 8.46667 26.4533 8.42667 26.32 8.4C25.8667 8.32 25.4533 8.29333 25.08 8.32C24.92 8.32 24.7867 8.33333 24.68 8.36L24.48 8.4C24.2933 8.42667 24.1467 8.45333 24.04 8.48C23.96 8.50667 23.8267 8.56 23.64 8.64L23.52 8.68C23.4933 8.68 23.4667 8.69333 23.44 8.72C23.44 8.72 23.4533 8.73333 23.48 8.76C23.4267 8.73333 23.36 8.74667 23.28 8.8C23.2267 8.82667 23.12 8.89333 22.96 9L22.92 9.16H23.36L23.68 9.12C24.0533 9.06667 24.3333 9.05333 24.52 9.08H25.32C25.6133 9.13333 25.8 9.22667 25.88 9.36V9.6C25.9067 9.76 25.9067 9.88 25.88 9.96L25.8 10.28C25.7467 10.52 25.6933 10.7067 25.64 10.84C25.64 10.8667 25.64 10.9067 25.64 10.96C25.64 11.0133 25.6133 11.0667 25.56 11.12C25.5333 11.1467 25.4933 11.2267 25.44 11.36L25.32 11.8C25.32 11.8267 25.32 11.84 25.32 11.84H25.28C25.2267 11.8933 25.2 11.9333 25.2 11.96L25.24 12.12C25.32 12.12 25.3733 12.1067 25.4 12.08L25.6 11.92C25.76 11.76 25.8667 11.64 25.92 11.56L26.16 11.2C26.2133 11.12 26.2933 10.9867 26.4 10.8L26.44 10.68C26.4933 10.5733 26.5467 10.4133 26.6 10.2C26.6 10.1467 26.6267 10.0933 26.68 10.04L26.72 9.76C26.8267 9.33333 26.8667 9 26.84 8.76C26.7867 8.62667 26.7333 8.54667 26.68 8.52ZM25.24 8.32H25.44H25.24ZM87.3106 5.32V0.559999H86.0706V3.72L85.3506 2.48C84.9506 1.86667 84.6706 1.4 84.5106 1.08C84.3773 0.866665 84.244 0.719999 84.1106 0.64C83.9773 0.533333 83.7906 0.493333 83.5506 0.519999C83.3906 0.546665 83.1373 0.546665 82.7906 0.519999H82.3906V4.8L81.2306 2.36C80.9106 1.61333 80.6573 1.05333 80.4706 0.679999C80.4706 0.599999 80.4173 0.559999 80.3106 0.559999C79.9906 0.533332 79.4973 0.519999 78.8306 0.519999L78.7906 0.64L78.0706 2.28C77.7506 3.08 77.4973 3.66667 77.3106 4.04C77.3106 4.06667 77.2973 4.10667 77.2706 4.16C77.244 4.18667 77.2173 4.2 77.1906 4.2H77.0706C76.8573 4.2 76.6973 4.18667 76.5906 4.16C76.4306 4.13333 76.2973 4.05333 76.1906 3.92C75.9773 3.70667 75.844 3.41333 75.7906 3.04C75.764 2.66667 75.844 2.34667 76.0306 2.08C76.244 1.76 76.5773 1.6 77.0306 1.6H77.9106V0.519999H77.3906C76.964 0.546665 76.644 0.546665 76.4306 0.519999C76.0573 0.519999 75.7373 0.626666 75.4706 0.84C75.204 1.05333 75.004 1.32 74.8706 1.64C74.604 2.30667 74.5506 3.02667 74.7106 3.8C74.844 4.33333 75.0706 4.72 75.3906 4.96C75.7106 5.2 76.124 5.32 76.6306 5.32H77.8706C77.9773 5.34667 78.0706 5.30667 78.1506 5.2V5.16C78.2306 4.89333 78.3373 4.6 78.4706 4.28H80.6706C80.6973 4.28 80.724 4.29333 80.7506 4.32C80.804 4.34667 80.8306 4.37333 80.8306 4.4L81.1906 5.16C81.2173 5.26667 81.3106 5.32 81.4706 5.32H83.6306V1.96L85.4706 4.96C85.5506 5.12 85.6306 5.22667 85.7106 5.28C85.7906 5.33333 85.9106 5.34667 86.0706 5.32H87.3106ZM78.9106 3.2C79.2306 2.45333 79.4706 1.88 79.6306 1.48L80.4306 3.2H78.9106ZM70.8306 8.68C69.4973 8.68 68.1506 8.68 66.7906 8.68C66.6573 8.68 66.5506 8.72 66.4706 8.8L65.2706 10.12C65.0573 9.85333 64.7373 9.48 64.3106 9C64.1506 8.78667 63.9373 8.68 63.6706 8.68H59.4306V13.4C59.4306 13.4267 59.444 13.44 59.4706 13.44H63.7506C63.8573 13.44 63.924 13.4 63.9506 13.32L64.7506 12.44C64.8573 12.3067 65.0173 12.1333 65.2306 11.92L66.3506 13.24C66.5373 13.4267 66.7106 13.5067 66.8706 13.48H68.8706V11.8H69.5906C70.204 11.8267 70.6573 11.8267 70.9506 11.8C71.484 11.7467 71.8306 11.48 71.9906 11C72.124 10.7067 72.164 10.3333 72.1106 9.88C72.084 9.50667 71.9506 9.21333 71.7106 9C71.4973 8.78667 71.204 8.68 70.8306 8.68ZM63.3906 12.36C63.284 12.4133 63.204 12.44 63.1506 12.44C62.5906 12.4667 61.724 12.48 60.5506 12.48V11.44H63.1506V10.64H60.5506V9.68H63.1106C63.164 9.68 63.244 9.70667 63.3506 9.76C63.884 10.2933 64.284 10.7067 64.5506 11C64.0173 11.5867 63.6306 12.04 63.3906 12.36ZM67.7106 13C67.604 12.8667 67.444 12.6933 67.2306 12.48L67.0706 12.28C66.644 11.7467 66.3106 11.36 66.0706 11.12C66.044 11.0667 66.0306 11.0267 66.0306 11C66.0306 10.9467 66.044 10.9067 66.0706 10.88L67.5106 9.24L67.7106 9.08V13ZM70.5506 10.84C69.9906 10.84 69.4173 10.84 68.8306 10.84V9.72H70.5906C70.6973 9.74667 70.7906 9.81333 70.8706 9.92C70.9506 10.0267 70.9906 10.1467 70.9906 10.28C70.9906 10.4133 70.9373 10.5333 70.8306 10.64C70.7506 10.7467 70.6573 10.8133 70.5506 10.84ZM59.9506 5.2C60.004 5.06667 60.084 4.88 60.1906 4.64L60.8306 3.28C61.0973 2.69333 61.2973 2.25333 61.4306 1.96C61.4573 1.96 61.4706 1.96 61.4706 1.96V5.28H62.6706V0.519999H60.7506L59.3506 3.64L59.1106 3.12C59.004 2.85333 58.8306 2.46667 58.5906 1.96L58.1906 1.04C58.084 0.773333 57.9906 0.626666 57.9106 0.599998C57.8306 0.546665 57.6306 0.519999 57.3106 0.519999H56.0706V4.92C55.884 4.54667 55.6306 3.98667 55.3106 3.24L54.1506 0.64C54.0973 0.586666 54.044 0.546665 53.9906 0.519999H52.5106L50.3906 5.28H51.7106C51.8706 4.85333 52.004 4.54667 52.1106 4.36C52.164 4.28 52.2306 4.24 52.3106 4.24H54.3106C54.4173 4.24 54.484 4.28 54.5106 4.36L54.8306 5.12C54.8573 5.22667 54.9373 5.28 55.0706 5.28H57.3106V2L57.3906 2.12C57.6573 2.73333 58.084 3.68 58.6706 4.96C58.724 5.12 58.764 5.21333 58.7906 5.24C58.844 5.26667 58.964 5.28 59.1506 5.28H59.7906L59.8706 5.24C59.924 5.24 59.9506 5.22667 59.9506 5.2ZM52.5506 3.2C52.8706 2.45333 53.124 1.88 53.3106 1.48L54.0306 3.2H52.5506ZM77.0706 9.56C76.9906 9.26667 76.844 9.05333 76.6306 8.92C76.4173 8.76 76.164 8.68 75.8706 8.68H72.6706V13.48H73.8706V11.8H75.3506C75.4573 11.8 75.564 11.8533 75.6706 11.96C75.7773 12.04 75.844 12.1467 75.8706 12.28L75.9506 13.48H77.1106V12.4L77.0306 11.88C76.9506 11.56 76.7506 11.36 76.4306 11.28L76.5106 11.16C76.7773 11 76.9506 10.7733 77.0306 10.48C77.1373 10.16 77.1506 9.85333 77.0706 9.56ZM75.4306 10.8C74.924 10.8 74.404 10.8 73.8706 10.8V9.68H75.5106C75.6173 9.70667 75.7106 9.78667 75.7906 9.92C75.8973 10.0267 75.9506 10.1467 75.9506 10.28C75.9506 10.6 75.7773 10.7733 75.4306 10.8ZM72.3106 4C72.3106 3.81333 72.244 3.62667 72.1106 3.44C72.004 3.25333 71.8306 3.12 71.5906 3.04L71.7506 3C72.044 2.84 72.2306 2.61333 72.3106 2.32C72.3906 2 72.3906 1.70667 72.3106 1.44C72.2573 1.14667 72.1106 0.933333 71.8706 0.8C71.6573 0.639999 71.4173 0.546665 71.1506 0.519999H68.1106C68.0306 0.519999 67.964 0.533332 67.9106 0.559999V5.28H69.1506V3.64H70.6306C70.7373 3.66667 70.8306 3.73333 70.9106 3.84C71.0173 3.92 71.084 4.02667 71.1106 4.16C71.1373 4.26667 71.1506 4.46667 71.1506 4.76L71.2306 5.28H72.3906V5.04C72.3373 4.56 72.3106 4.21333 72.3106 4ZM70.6706 2.64C70.164 2.64 69.644 2.64 69.1106 2.64V1.56H70.0706C70.3106 1.56 70.484 1.54667 70.5906 1.52C70.7773 1.52 70.924 1.57333 71.0306 1.68C71.1373 1.78667 71.1906 1.92 71.1906 2.08C71.2173 2.24 71.1773 2.37333 71.0706 2.48C70.9906 2.58667 70.8573 2.64 70.6706 2.64ZM67.2706 4.28H64.6706V3.4H67.1906V2.4H64.6706V1.6H67.2706V0.559999H63.4306V5.28H67.2706V4.28ZM77.7106 13.4H81.5506V12.4H78.8706V11.48H81.4306V10.56H78.8706V9.72H81.5506V8.68H77.6706C77.6973 9.74667 77.7106 11.32 77.7106 13.4ZM85.3906 10.72C85.0706 10.6133 84.8173 10.5467 84.6306 10.52C84.524 10.4933 84.364 10.48 84.1506 10.48C83.9373 10.48 83.7773 10.48 83.6706 10.48H83.5906C83.3773 10.4267 83.244 10.3333 83.1906 10.2C83.1373 10.0667 83.1506 9.96 83.2306 9.88C83.3106 9.77333 83.4306 9.72 83.5906 9.72H85.7906V8.72C85.7906 8.69333 85.7906 8.68 85.7906 8.68H84.8706C84.0706 8.65333 83.4706 8.65333 83.0706 8.68C82.6173 8.73333 82.2973 8.94667 82.1106 9.32C82.004 9.50667 81.9506 9.81333 81.9506 10.24C81.9773 10.6133 82.0573 10.8933 82.1906 11.08C82.3506 11.2667 82.5773 11.3867 82.8706 11.44C83.164 11.4933 83.5906 11.5467 84.1506 11.6H84.2706C84.404 11.6 84.5106 11.6267 84.5906 11.68C84.6973 11.7333 84.7506 11.8133 84.7506 11.92C84.7773 12.0267 84.7506 12.12 84.6706 12.2C84.5906 12.28 84.4973 12.3333 84.3906 12.36L84.3106 12.4C84.1506 12.4267 84.0306 12.44 83.9506 12.44H82.0306V13.44C82.0573 13.4667 82.084 13.48 82.1106 13.48C83.3106 13.48 84.2173 13.4667 84.8306 13.44C85.2573 13.4133 85.604 13.1733 85.8706 12.72C86.0306 12.3733 86.0706 11.9467 85.9906 11.44C85.884 11.0667 85.684 10.8267 85.3906 10.72ZM90.3506 11.6C90.324 11.28 90.2173 11.04 90.0306 10.88C89.844 10.72 89.5906 10.6133 89.2706 10.56L88.0706 10.48C88.0173 10.48 87.9373 10.4667 87.8306 10.44L87.7506 10.4C87.5906 10.3467 87.5106 10.2267 87.5106 10.04C87.5373 9.82667 87.684 9.72 87.9506 9.72H90.1506V8.68H89.2306C88.4573 8.65333 87.8706 8.65333 87.4706 8.68C87.0973 8.68 86.7906 8.84 86.5506 9.16C86.3906 9.42667 86.3106 9.77333 86.3106 10.2C86.3106 10.52 86.3906 10.8 86.5506 11.04C86.7373 11.2533 86.9773 11.3867 87.2706 11.44C87.484 11.4667 87.7906 11.4933 88.1906 11.52L88.6706 11.56C88.8573 11.5867 88.9906 11.6533 89.0706 11.76C89.1506 11.8667 89.1506 12 89.0706 12.16C88.9906 12.2933 88.8573 12.36 88.6706 12.36L86.4706 12.4V13.4H87.3506C88.1506 13.4267 88.7506 13.44 89.1506 13.44C89.5773 13.4133 89.924 13.2 90.1906 12.8C90.3773 12.4533 90.4306 12.0533 90.3506 11.6ZM74.1506 0.559999H72.9106V5.28H74.1506V0.559999ZM130.701 3.44C130.648 2.8 130.368 2.30667 129.861 1.96C129.461 1.69333 128.928 1.53333 128.261 1.48C127.941 1.42667 127.515 1.41333 126.981 1.44H124.901C124.741 1.44 124.608 1.49333 124.501 1.6C124.395 1.68 124.315 1.78667 124.261 1.92L123.101 7.04L122.581 9.2C122.555 9.52 122.701 9.68 123.021 9.68H124.101C124.261 9.68 124.395 9.64 124.501 9.56C124.608 9.45333 124.688 9.33333 124.741 9.2L125.141 7.44C125.195 7.30667 125.275 7.2 125.381 7.12C125.488 7.04 125.595 7 125.701 7H126.581C127.675 6.89333 128.501 6.68 129.061 6.36C130.235 5.72 130.781 4.74667 130.701 3.44ZM128.421 4.12C128.315 4.76 127.941 5.16 127.301 5.32C126.981 5.4 126.661 5.44 126.341 5.44C126.181 5.44 126.048 5.42667 125.941 5.4C125.861 5.37333 125.795 5.33333 125.741 5.28C125.688 5.2 125.675 5.10667 125.701 5L126.061 3.4C126.168 3.10667 126.355 2.96 126.621 2.96C127.075 2.96 127.421 2.98667 127.661 3.04C128.248 3.14667 128.501 3.50667 128.421 4.12ZM108.901 3.32C108.821 2.62667 108.475 2.12 107.861 1.8C107.435 1.61333 106.888 1.49333 106.221 1.44C105.875 1.41333 105.395 1.4 104.781 1.4H103.101C102.755 1.4 102.541 1.57333 102.461 1.92L101.781 5C101.541 5.93333 101.208 7.33333 100.781 9.2C100.755 9.33333 100.781 9.45333 100.861 9.56C100.941 9.64 101.048 9.68 101.181 9.68H102.341C102.475 9.68 102.595 9.64 102.701 9.56C102.808 9.45333 102.888 9.33333 102.941 9.2C103.101 8.45333 103.221 7.89333 103.301 7.52C103.408 7.14667 103.635 6.96 103.981 6.96C104.541 6.96 104.968 6.94667 105.261 6.92C106.061 6.84 106.728 6.64 107.261 6.32C107.928 5.97333 108.395 5.49333 108.661 4.88C108.875 4.48 108.955 3.96 108.901 3.32ZM106.621 4C106.595 4.66667 106.221 5.09333 105.501 5.28C105.101 5.41333 104.688 5.45333 104.261 5.4C104.128 5.4 104.021 5.36 103.941 5.28C103.888 5.17333 103.875 5.05333 103.901 4.92L104.261 3.4C104.315 3.26667 104.395 3.16 104.501 3.08C104.608 2.97333 104.728 2.92 104.861 2.92H105.141C105.435 2.92 105.715 2.96 105.981 3.04C106.461 3.14667 106.675 3.46667 106.621 4ZM122.581 3.36C122.155 3.36 121.741 3.36 121.341 3.36C120.941 3.36 120.635 3.53333 120.421 3.88C120.368 3.93333 120.315 4.01333 120.261 4.12L118.541 7.04C118.541 7.12 118.501 7.16 118.421 7.16C118.368 7.16 118.341 7.10667 118.341 7L117.861 4.04C117.781 3.58667 117.515 3.36 117.061 3.36H116.101C115.968 3.36 115.861 3.41333 115.781 3.52C115.728 3.6 115.715 3.70667 115.741 3.84L116.501 8.32C116.608 8.96 116.688 9.44 116.741 9.76V9.88C116.741 10.0933 116.715 10.24 116.661 10.32L115.821 11.8C115.688 12.0133 115.608 12.1733 115.581 12.28C115.555 12.36 115.555 12.4267 115.581 12.48C115.635 12.5333 115.715 12.56 115.821 12.56H117.021C117.155 12.5867 117.301 12.56 117.461 12.48C117.621 12.4 117.768 12.24 117.901 12L122.021 5C122.235 4.62667 122.408 4.34667 122.541 4.16L122.621 4.04C122.701 3.88 122.755 3.74667 122.781 3.64C122.835 3.45333 122.768 3.36 122.581 3.36ZM135.941 3.52C135.541 3.38667 135.181 3.32 134.861 3.32C134.088 3.24 133.208 3.29333 132.221 3.48C131.875 3.53333 131.648 3.70667 131.541 4C131.461 4.26667 131.408 4.50667 131.381 4.72C131.355 4.82667 131.368 4.90667 131.421 4.96C131.475 5.01333 131.555 5.02667 131.661 5C131.928 4.89333 132.355 4.78667 132.941 4.68C133.475 4.6 133.968 4.62667 134.421 4.76C134.795 4.84 134.955 5.05333 134.901 5.4C134.901 5.48 134.888 5.53333 134.861 5.56C134.835 5.58667 134.781 5.6 134.701 5.6H134.581C134.021 5.65333 133.595 5.70667 133.301 5.76H133.261C132.515 5.86667 131.968 6 131.621 6.16C130.688 6.50667 130.168 7.13333 130.061 8.04C130.008 8.49333 130.101 8.89333 130.341 9.24C130.581 9.56 130.915 9.76 131.341 9.84C132.141 9.97333 132.888 9.81333 133.581 9.36C133.795 9.2 133.955 9.09333 134.061 9.04V9.16C133.981 9.50667 134.115 9.68 134.461 9.68H135.381C135.728 9.68 135.941 9.50667 136.021 9.16L136.781 5.96C136.861 5.58667 136.915 5.29333 136.941 5.08C137.021 4.28 136.688 3.76 135.941 3.52ZM134.581 6.88C134.501 7.22667 134.421 7.58667 134.341 7.96C134.315 8.06667 134.221 8.14667 134.061 8.2C133.688 8.44 133.341 8.56 133.021 8.56C132.861 8.56 132.675 8.53333 132.461 8.48C132.248 8.4 132.141 8.24 132.141 8C132.088 7.54667 132.301 7.24 132.781 7.08C133.048 6.97333 133.355 6.89333 133.701 6.84L134.461 6.76C134.595 6.76 134.635 6.8 134.581 6.88ZM114.301 3.6C113.981 3.44 113.475 3.33333 112.781 3.28C111.981 3.25333 111.155 3.32 110.301 3.48C110.008 3.56 109.821 3.70667 109.741 3.92C109.688 4.13333 109.635 4.38667 109.581 4.68C109.528 4.97333 109.621 5.08 109.861 5C110.341 4.81333 110.795 4.69333 111.221 4.64C111.648 4.58667 112.115 4.62667 112.621 4.76C112.968 4.84 113.128 5.05333 113.101 5.4C113.101 5.48 113.088 5.53333 113.061 5.56C113.035 5.58667 112.981 5.6 112.901 5.6C112.261 5.65333 111.781 5.70667 111.461 5.76C110.821 5.86667 110.341 5.97333 110.021 6.08C109.568 6.21333 109.195 6.41333 108.901 6.68C108.528 7.02667 108.315 7.52 108.261 8.16C108.235 8.58667 108.341 8.96 108.581 9.28C108.848 9.6 109.195 9.78667 109.621 9.84C110.448 9.92 111.195 9.74667 111.861 9.32C111.968 9.21333 112.101 9.12 112.261 9.04V9.16C112.235 9.32 112.248 9.45333 112.301 9.56C112.381 9.64 112.501 9.68 112.661 9.68H113.621C113.755 9.68 113.875 9.64 113.981 9.56C114.088 9.45333 114.168 9.33333 114.221 9.2L114.901 6.12C115.035 5.61333 115.115 5.22667 115.141 4.96C115.195 4.29333 114.915 3.84 114.301 3.6ZM112.781 6.88C112.755 6.98667 112.715 7.16 112.661 7.4L112.541 7.92C112.515 8.02667 112.448 8.10667 112.341 8.16C111.915 8.42667 111.541 8.56 111.221 8.56C111.088 8.56 110.901 8.53333 110.661 8.48C110.448 8.4 110.341 8.22667 110.341 7.96C110.341 7.50667 110.568 7.2 111.021 7.04C111.235 6.96 111.581 6.89333 112.061 6.84L112.661 6.76C112.715 6.76 112.741 6.77333 112.741 6.8C112.768 6.8 112.781 6.82667 112.781 6.88ZM140.381 1.48H139.341C139.208 1.48 139.088 1.53333 138.981 1.64C138.875 1.72 138.795 1.82667 138.741 1.96C138.581 2.76 138.448 3.36 138.341 3.76L137.141 9.2C137.115 9.33333 137.141 9.45333 137.221 9.56C137.301 9.64 137.421 9.68 137.581 9.68H138.581C138.715 9.68 138.835 9.64 138.941 9.56C139.048 9.45333 139.128 9.33333 139.181 9.2L140.781 1.92C140.808 1.78667 140.781 1.68 140.701 1.6C140.621 1.52 140.515 1.48 140.381 1.48ZM156.132 5C156.319 5.08 156.572 5.21333 156.892 5.4L157.172 5.56C157.385 5.66667 157.532 5.84 157.612 6.08C157.692 6.29333 157.679 6.52 157.572 6.76C157.492 6.97333 157.345 7.13333 157.132 7.24C156.919 7.32 156.692 7.33333 156.452 7.28C155.945 7.14667 155.532 7.01333 155.212 6.88L155.172 6.96C155.812 7.46667 156.639 8.16 157.652 9.04C157.705 9.09333 157.745 9.12 157.772 9.12C157.825 9.09333 157.865 9.05333 157.892 9L162.812 3.16C162.865 3.08 162.892 3.01333 162.892 2.96C162.919 2.90667 162.892 2.84 162.812 2.76C162.145 2.22667 161.172 1.42667 159.892 0.359999C159.839 0.306666 159.785 0.28 159.732 0.28C159.705 0.28 159.665 0.306666 159.612 0.359999C159.345 0.706666 158.919 1.22667 158.332 1.92L156.052 4.6C155.972 4.70667 155.932 4.78667 155.932 4.84C155.959 4.89333 156.025 4.94667 156.132 5ZM158.692 3.28C159.092 3.30667 159.439 3.46667 159.732 3.76C160.025 4.05333 160.172 4.38667 160.172 4.76C160.172 5.13333 160.039 5.45333 159.772 5.72C159.532 5.96 159.212 6.08 158.812 6.08C158.439 6.05333 158.105 5.89333 157.812 5.6C157.519 5.30667 157.372 4.97333 157.372 4.6C157.372 4.22667 157.492 3.92 157.732 3.68C157.999 3.41333 158.319 3.28 158.692 3.28ZM161.092 12.68C161.145 12.7867 161.239 12.8133 161.372 12.76L164.212 12.52L163.932 11.84C163.665 11.1467 163.439 10.64 163.252 10.32C162.932 9.70667 162.465 9.38667 161.852 9.36C161.345 9.30667 160.599 9.29333 159.612 9.32H158.732C158.572 9.32 158.439 9.37333 158.332 9.48C158.252 9.58667 158.212 9.70667 158.212 9.84C158.239 9.97333 158.292 10.0933 158.372 10.2C158.479 10.28 158.612 10.3333 158.772 10.36H159.972C160.079 10.36 160.145 10.3733 160.172 10.4C160.225 10.4267 160.252 10.48 160.252 10.56C160.279 10.64 160.265 10.6933 160.212 10.72C160.159 10.72 160.079 10.72 159.972 10.72H157.972C157.572 10.72 157.212 10.6 156.892 10.36C156.439 10.04 155.945 9.70667 155.412 9.36C155.279 9.25333 155.132 9.21333 154.972 9.24C154.839 9.24 154.719 9.30667 154.612 9.44C154.532 9.54667 154.492 9.68 154.492 9.84C154.519 10 154.599 10.1467 154.732 10.28L156.292 11.6C156.799 12.0533 157.372 12.28 158.012 12.28C158.305 12.2533 158.772 12.2533 159.412 12.28H160.092C160.572 12.28 160.905 12.4133 161.092 12.68ZM157.212 6.56C157.292 6.26667 157.185 6.04 156.892 5.88C156.519 5.69333 155.985 5.38667 155.292 4.96C155.052 4.88 154.959 4.74667 155.012 4.56C155.065 4.37333 155.212 4.28 155.452 4.28H155.572C155.732 4.30667 155.825 4.28 155.852 4.2C156.065 3.96 156.412 3.56 156.892 3L157.092 2.76L156.252 2.6C155.879 2.52 155.585 2.48 155.372 2.48C155.052 2.45333 154.745 2.48 154.452 2.56L154.252 2.64C153.505 2.85333 152.932 3 152.532 3.08C152.425 3.08 152.372 3.14667 152.372 3.28V5.76L152.692 5.68C152.879 5.62667 153.012 5.58667 153.092 5.56C153.412 5.42667 153.679 5.50667 153.892 5.8C154.105 6.01333 154.292 6.14667 154.452 6.2C155.359 6.52 156.039 6.74667 156.492 6.88C156.679 6.93333 156.825 6.93333 156.932 6.88C157.065 6.8 157.159 6.69333 157.212 6.56ZM164.412 12.92C162.972 13.08 161.892 13.1867 161.172 13.24C161.039 13.24 160.972 13.32 160.972 13.48V13.52C160.972 13.6533 161.039 13.72 161.172 13.72H164.012C164.332 13.72 164.505 13.6933 164.532 13.64C164.585 13.5867 164.599 13.4 164.572 13.08C164.572 12.9733 164.519 12.92 164.412 12.92ZM151.652 2.76C151.572 2.76 151.465 2.76 151.332 2.76C151.225 2.73333 151.172 2.81333 151.172 3C151.252 3.69333 151.345 4.73333 151.452 6.12C151.479 6.2 151.505 6.25333 151.532 6.28C151.585 6.30667 151.652 6.32 151.732 6.32C151.892 6.34667 151.959 6.25333 151.932 6.04C151.932 5.82667 151.945 5.50667 151.972 5.08V4.04C151.945 3.61333 151.945 3.28 151.972 3.04C151.972 2.90667 151.945 2.82667 151.892 2.8C151.839 2.74667 151.759 2.73333 151.652 2.76ZM157.972 4.72C158.079 4.90667 158.212 5 158.372 5C158.479 5 158.612 4.96 158.772 4.88L158.852 4.84C158.959 4.78667 159.039 4.78667 159.092 4.84C159.145 4.89333 159.119 4.97333 159.012 5.08C158.959 5.13333 158.905 5.17333 158.852 5.2C158.719 5.25333 158.692 5.33333 158.772 5.44C158.852 5.54667 158.959 5.57333 159.092 5.52C159.172 5.38667 159.252 5.34667 159.332 5.4C159.412 5.45333 159.479 5.45333 159.532 5.4C159.585 5.34667 159.612 5.30667 159.612 5.28C159.612 5.22667 159.585 5.18667 159.532 5.16C159.505 5.10667 159.492 5.06667 159.492 5.04C159.492 4.98667 159.505 4.94667 159.532 4.92C159.532 4.65333 159.452 4.48 159.292 4.4C159.159 4.32 158.972 4.33333 158.732 4.44L158.612 4.52C158.505 4.57333 158.425 4.57333 158.372 4.52C158.345 4.44 158.399 4.34667 158.532 4.24L158.612 4.2C158.692 4.14667 158.705 4.08 158.652 4C158.625 3.92 158.585 3.88 158.532 3.88C158.505 3.88 158.439 3.90667 158.332 3.96C158.225 4.01333 158.145 4.02667 158.092 4C158.065 3.94667 158.025 3.96 157.972 4.04L157.892 4.12C157.972 4.17333 157.999 4.28 157.972 4.44C157.945 4.57333 157.945 4.66667 157.972 4.72ZM166.692 5.72C166.852 5.8 166.999 5.84 167.132 5.84C167.292 5.84 167.412 5.82667 167.492 5.8L167.572 5.76C167.679 5.73333 167.745 5.70667 167.772 5.68C167.905 5.62667 167.999 5.57333 168.052 5.52C168.132 5.44 168.185 5.34667 168.212 5.24L167.892 5.04C167.839 5.14667 167.785 5.22667 167.732 5.28C167.705 5.33333 167.652 5.37333 167.572 5.4L167.212 5.48C167.132 5.48 167.012 5.45333 166.852 5.4C166.799 5.37333 166.719 5.30667 166.612 5.2C166.559 5.14667 166.505 5.04 166.452 4.88C166.399 4.72 166.372 4.6 166.372 4.52C166.372 4.36 166.385 4.25333 166.412 4.2L166.452 4.12C166.505 3.98667 166.545 3.90667 166.572 3.88C166.679 3.77333 166.772 3.69333 166.852 3.64C166.932 3.58667 167.039 3.56 167.172 3.56L167.372 3.6C167.399 3.6 167.452 3.61333 167.532 3.64L167.572 3.68C167.599 3.68 167.652 3.72 167.732 3.8C167.759 3.82667 167.799 3.89333 167.852 4L168.172 3.76C168.092 3.62667 167.972 3.50667 167.812 3.4C167.679 3.26667 167.492 3.2 167.252 3.2C167.012 3.2 166.825 3.24 166.692 3.32L166.572 3.4C166.439 3.48 166.345 3.54667 166.292 3.6C166.159 3.76 166.065 3.90667 166.012 4.04C165.985 4.14667 165.972 4.30667 165.972 4.52C165.972 4.73333 165.985 4.90667 166.012 5.04C166.065 5.14667 166.159 5.28 166.292 5.44C166.425 5.6 166.559 5.69333 166.692 5.72ZM170.132 5.36V4.68C170.132 4.44 170.052 4.25333 169.892 4.12C169.759 3.96 169.559 3.88 169.292 3.88C169.025 3.88 168.772 3.96 168.532 4.12L168.652 4.4C168.705 4.34667 168.799 4.29333 168.932 4.24C169.065 4.18667 169.172 4.16 169.252 4.16C169.412 4.16 169.532 4.2 169.612 4.28C169.692 4.36 169.732 4.48 169.732 4.64V4.76L169.492 4.68C169.465 4.65333 169.399 4.65333 169.292 4.68H169.212C169.052 4.68 168.945 4.69333 168.892 4.72L168.652 4.84C168.572 4.89333 168.505 4.96 168.452 5.04C168.425 5.06667 168.412 5.14667 168.412 5.28C168.412 5.38667 168.425 5.46667 168.452 5.52L168.572 5.72L168.812 5.84C168.865 5.86667 168.945 5.88 169.052 5.88C169.159 5.88 169.292 5.84 169.452 5.76C169.612 5.68 169.719 5.6 169.772 5.52V5.64L169.852 5.8C169.879 5.82667 169.945 5.84 170.052 5.84H170.252V5.48H170.132V5.36ZM169.732 5.24C169.732 5.26667 169.705 5.30667 169.652 5.36C169.625 5.41333 169.559 5.46667 169.452 5.52C169.399 5.54667 169.305 5.56 169.172 5.56C169.039 5.56 168.932 5.53333 168.852 5.48C168.799 5.4 168.772 5.32 168.772 5.24C168.772 5.13333 168.825 5.05333 168.932 5L168.972 4.96C169.105 4.90667 169.212 4.88 169.292 4.88L169.492 4.92C169.545 4.92 169.625 4.94667 169.732 5V5.24ZM171.332 5.56C171.092 5.56 170.852 5.48 170.612 5.32L170.452 5.6L170.652 5.72L170.852 5.8C170.905 5.82667 170.985 5.84 171.092 5.84L171.332 5.88L171.652 5.84C171.732 5.84 171.812 5.8 171.892 5.72C171.972 5.64 172.025 5.57333 172.052 5.52C172.105 5.41333 172.132 5.33333 172.132 5.28C172.132 5.2 172.119 5.13333 172.092 5.08C172.065 5 172.012 4.94667 171.932 4.92L171.692 4.8L171.372 4.72L171.172 4.64C171.172 4.61333 171.145 4.6 171.092 4.6C171.065 4.6 171.039 4.6 171.012 4.6L170.972 4.52C170.945 4.52 170.932 4.48 170.932 4.4C170.932 4.32 170.972 4.26667 171.052 4.24C171.159 4.18667 171.239 4.16 171.292 4.16C171.479 4.16 171.679 4.22667 171.892 4.36L172.052 4.12C171.999 4.06667 171.892 4.01333 171.732 3.96C171.572 3.90667 171.425 3.88 171.292 3.88C171.159 3.88 171.065 3.89333 171.012 3.92L170.772 4.04C170.719 4.06667 170.665 4.13333 170.612 4.24C170.585 4.29333 170.572 4.37333 170.572 4.48V4.68C170.572 4.70667 170.599 4.73333 170.652 4.76L170.692 4.8L171.012 4.96C171.092 4.98667 171.159 5 171.212 5C171.399 5.02667 171.532 5.06667 171.612 5.12C171.692 5.14667 171.732 5.2 171.732 5.28C171.732 5.36 171.692 5.44 171.612 5.52C171.559 5.54667 171.465 5.56 171.332 5.56ZM174.052 4.12C174.025 4.06667 173.959 4.01333 173.852 3.96C173.745 3.90667 173.652 3.88 173.572 3.88C173.439 3.88 173.292 3.93333 173.132 4.04C172.999 4.12 172.905 4.21333 172.852 4.32V3.16H172.452V5.84H172.852V4.68L172.932 4.52C172.959 4.44 173.012 4.38667 173.092 4.36L173.172 4.32C173.199 4.29333 173.225 4.28 173.252 4.28C173.279 4.25333 173.332 4.24 173.412 4.24C173.519 4.24 173.599 4.28 173.652 4.36C173.732 4.41333 173.772 4.54667 173.772 4.76V5.84H174.172V4.68C174.172 4.54667 174.159 4.44 174.132 4.36L174.052 4.12ZM177.132 5.56C177.159 5.53333 177.199 5.46667 177.252 5.36L177.332 5.24C177.385 5.18667 177.399 5.09333 177.372 4.96V4.88C177.372 4.69333 177.359 4.56 177.332 4.48L177.132 4.2C176.999 4.06667 176.892 3.98667 176.812 3.96C176.652 3.90667 176.519 3.88 176.412 3.88C176.305 3.88 176.172 3.90667 176.012 3.96C175.879 4.01333 175.759 4.09333 175.652 4.2C175.572 4.30667 175.519 4.4 175.492 4.48C175.439 4.64 175.412 4.77333 175.412 4.88C175.412 4.96 175.439 5.06667 175.492 5.2C175.545 5.33333 175.599 5.45333 175.652 5.56C175.732 5.64 175.825 5.70667 175.932 5.76L175.972 5.8C176.052 5.85333 176.199 5.88 176.412 5.88C176.519 5.88 176.652 5.85333 176.812 5.8C176.892 5.77333 176.999 5.69333 177.132 5.56ZM176.412 5.52C176.305 5.52 176.225 5.50667 176.172 5.48C176.119 5.45333 176.052 5.41333 175.972 5.36C175.919 5.28 175.892 5.21333 175.892 5.16C175.892 5.10667 175.879 5.05333 175.852 5C175.825 4.94667 175.812 4.90667 175.812 4.88C175.812 4.82667 175.839 4.74667 175.892 4.64C175.892 4.56 175.919 4.49333 175.972 4.44C176.052 4.36 176.119 4.30667 176.172 4.28C176.225 4.25333 176.305 4.24 176.412 4.24C176.519 4.24 176.585 4.25333 176.612 4.28L176.812 4.4L176.932 4.6C176.959 4.65333 176.972 4.74667 176.972 4.88L176.932 5.12C176.879 5.22667 176.839 5.29333 176.812 5.32C176.732 5.4 176.665 5.45333 176.612 5.48C176.585 5.50667 176.519 5.52 176.412 5.52ZM178.132 4.68C178.159 4.65333 178.172 4.62667 178.172 4.6L178.212 4.52C178.239 4.49333 178.279 4.45333 178.332 4.4L178.372 4.36C178.425 4.30667 178.465 4.28 178.492 4.28C178.545 4.25333 178.612 4.24 178.692 4.24C178.799 4.24 178.879 4.29333 178.932 4.4C179.012 4.48 179.052 4.6 179.052 4.76V5.84H179.452V4.68C179.452 4.54667 179.439 4.44 179.412 4.36L179.332 4.12C179.305 4.04 179.239 3.98667 179.132 3.96C179.052 3.90667 178.972 3.88 178.892 3.88C178.732 3.88 178.572 3.93333 178.412 4.04C178.252 4.12 178.145 4.21333 178.092 4.32V3.92H177.732V5.84H178.132V4.68ZM169.652 8.04C169.465 7.82667 169.239 7.66667 168.972 7.56C168.705 7.45333 168.359 7.4 167.932 7.4H166.292V11.96H167.932C168.199 11.96 168.519 11.9067 168.892 11.8C169.079 11.7467 169.305 11.5867 169.572 11.32C169.785 11.1067 169.945 10.88 170.052 10.64C170.159 10.3733 170.212 10.0533 170.212 9.68C170.212 9.44 170.159 9.13333 170.052 8.76C169.999 8.6 169.892 8.4 169.732 8.16L169.652 8.04ZM169.212 10.24C169.185 10.3467 169.119 10.4933 169.012 10.68L168.972 10.72C168.892 10.8267 168.745 10.9333 168.532 11.04C168.372 11.12 168.185 11.16 167.972 11.16H167.172V8.16H167.972C168.185 8.16 168.372 8.2 168.532 8.28C168.745 8.38667 168.892 8.49333 168.972 8.6C169.079 8.68 169.159 8.82667 169.212 9.04C169.265 9.17333 169.292 9.38667 169.292 9.68C169.292 9.94667 169.265 10.1333 169.212 10.24ZM173.692 9.04C173.532 8.88 173.332 8.76 173.092 8.68C172.852 8.57333 172.612 8.52 172.372 8.52C172.079 8.52 171.839 8.56 171.652 8.64C171.465 8.72 171.279 8.85333 171.092 9.04C170.932 9.2 170.812 9.38667 170.732 9.6C170.652 9.78667 170.612 10 170.612 10.24C170.612 10.48 170.652 10.72 170.732 10.96C170.785 11.12 170.892 11.2933 171.052 11.48C171.239 11.64 171.439 11.7733 171.652 11.88C171.812 11.96 172.052 12 172.372 12C172.772 12 173.092 11.9333 173.332 11.8C173.599 11.64 173.799 11.4133 173.932 11.12L173.212 10.92C173.159 11.0533 173.052 11.16 172.892 11.24C172.732 11.32 172.572 11.36 172.412 11.36C172.279 11.36 172.159 11.3467 172.052 11.32C171.972 11.2667 171.879 11.2 171.772 11.12C171.692 11.04 171.625 10.96 171.572 10.88C171.545 10.7733 171.532 10.6533 171.532 10.52H174.132V10.24C174.132 10 174.092 9.78667 174.012 9.6C173.932 9.41333 173.825 9.22667 173.692 9.04ZM171.492 10C171.492 9.97333 171.505 9.93333 171.532 9.88C171.532 9.77333 171.559 9.69333 171.612 9.64C171.665 9.50667 171.719 9.41333 171.772 9.36C171.852 9.28 171.945 9.22667 172.052 9.2C172.105 9.17333 172.212 9.16 172.372 9.16C172.585 9.16 172.772 9.22667 172.932 9.36C173.092 9.46667 173.199 9.68 173.252 10H171.492ZM176.052 11.2C175.999 11.2 175.932 11.2 175.852 11.2C175.639 11.2 175.532 11.08 175.532 10.84V7.24H174.652V11.16C174.652 11.4267 174.732 11.6267 174.892 11.76C175.105 11.92 175.305 12 175.492 12L175.932 11.96L176.332 11.84L176.212 11.12L176.052 11.2ZM176.692 8.6H177.572V11.96H176.692V8.6ZM176.692 7.28H177.572V8.12H176.692V7.28ZM179.732 11.24L178.852 8.6H177.972L179.212 11.96H180.132L181.372 8.6H180.572L179.732 11.24ZM184.652 9.04C184.545 8.90667 184.359 8.78667 184.092 8.68C183.852 8.57333 183.612 8.52 183.372 8.52C183.079 8.52 182.839 8.57333 182.652 8.68C182.385 8.76 182.199 8.88 182.092 9.04L182.052 9.08C181.892 9.32 181.785 9.49333 181.732 9.6C181.652 9.78667 181.612 10 181.612 10.24C181.612 10.48 181.652 10.72 181.732 10.96C181.785 11.12 181.892 11.2933 182.052 11.48C182.239 11.64 182.439 11.7733 182.652 11.88C182.812 11.96 183.052 12 183.372 12C183.772 12 184.092 11.92 184.332 11.76C184.625 11.5467 184.825 11.3333 184.932 11.12L184.212 10.92C184.105 11.08 183.999 11.1867 183.892 11.24C183.732 11.32 183.572 11.36 183.412 11.36C183.252 11.36 183.145 11.3467 183.092 11.32C182.985 11.2667 182.879 11.2 182.772 11.12C182.692 11.04 182.625 10.96 182.572 10.88C182.545 10.7733 182.532 10.6533 182.532 10.52H185.132V10.24C185.132 10 185.092 9.78667 185.012 9.6C184.932 9.38667 184.812 9.2 184.652 9.04ZM182.492 10C182.492 9.92 182.505 9.81333 182.532 9.68L182.572 9.64L182.772 9.36C182.852 9.28 182.945 9.22667 183.052 9.2C183.105 9.17333 183.212 9.16 183.372 9.16C183.585 9.16 183.772 9.22667 183.932 9.36C184.092 9.46667 184.199 9.68 184.252 10H182.492ZM187.492 8.52C187.305 8.52 187.105 8.6 186.892 8.76C186.705 8.89333 186.559 9.08 186.452 9.32V8.6H185.652V11.96H186.532V9.92C186.612 9.70667 186.759 9.56 186.972 9.48C187.239 9.37333 187.465 9.32 187.652 9.32V8.56C187.652 8.53333 187.625 8.52 187.572 8.52H187.492ZM190.372 8.6L189.572 11.2L188.652 8.6H187.772L189.092 11.96L188.972 12.32C188.945 12.4 188.905 12.4667 188.852 12.52L188.732 12.64C188.705 12.6667 188.665 12.6667 188.612 12.64H188.412C188.305 12.64 188.225 12.6267 188.172 12.6V13.36C188.279 13.3867 188.439 13.4 188.652 13.4C188.945 13.4 189.185 13.3333 189.372 13.2C189.559 13.0667 189.692 12.8667 189.772 12.6L191.172 8.6H190.372Z" fill="white"></path></svg>